<mxfile modified="2023-01-26T08:55:21.580Z" host="drawio-plugin" agent="5.0 (X11; Linux x86_64) AppleWebKit/537.36 (KHTML, like Gecko) Chrome/98.0.4758.102 Safari/537.36" etag="eE9KeqHAylnuqr3vOgJG" version="20.5.3" type="embed"><diagram id="PKrw68s-FcHz-RrZCr9i" name="Page-1"><mxGraphModel dx="886" dy="1594" grid="1" gridSize="10" guides="1" tooltips="1" connect="1" arrows="1" fold="1" page="1" pageScale="1" pageWidth="827" pageHeight="1169" math="0" shadow="0"><root><mxCell id="0"/><mxCell id="1" parent="0"/><mxCell id="Gvd8Ezxa3fLg7O33Pl0G-1" value="Начало" style="rounded=1;whiteSpace=wrap;html=1;arcSize=50;" parent="1" vertex="1"><mxGeometry x="290" y="100" width="140" height="60" as="geometry"/></mxCell><mxCell id="Gvd8Ezxa3fLg7O33Pl0G-6" value="DBSCAN&lt;br&gt;Вход: Множество точек P, расстояние eps, мин. количесвто точек MinPt, количество потоков ThCnt&lt;br&gt;Выход: множество кластеров C" style="text;html=1;strokeColor=none;fillColor=none;align=center;verticalAlign=middle;whiteSpace=wrap;rounded=0;" parent="1" vertex="1"><mxGeometry x="508" y="107" width="250.5" height="40" as="geometry"/></mxCell><mxCell id="Gvd8Ezxa3fLg7O33Pl0G-37" value="Конец" style="rounded=1;whiteSpace=wrap;html=1;arcSize=50;" parent="1" vertex="1"><mxGeometry x="300" y="570" width="120" height="60" as="geometry"/></mxCell><mxCell id="Gvd8Ezxa3fLg7O33Pl0G-42" value="Вернуть C" style="text;html=1;resizable=0;points=[];autosize=1;align=left;verticalAlign=top;spacingTop=-4;" parent="1" vertex="1"><mxGeometry x="508" y="590" width="80" height="20" as="geometry"/></mxCell><mxCell id="18" value="" style="edgeStyle=orthogonalEdgeStyle;rounded=0;orthogonalLoop=1;jettySize=auto;html=1;endArrow=none;endFill=0;exitX=0.5;exitY=1;exitDx=0;exitDy=0;" parent="1" source="20" target="Gvd8Ezxa3fLg7O33Pl0G-37" edge="1"><mxGeometry relative="1" as="geometry"><mxPoint x="361.5" y="850" as="sourcePoint"/></mxGeometry></mxCell><mxCell id="7Xwj2gsnW8v6YeENi7_U-5" value="" style="endArrow=none;dashed=1;html=1;exitX=1;exitY=0.5;exitDx=0;exitDy=0;entryX=0.5;entryY=1;entryDx=0;entryDy=0;" parent="1" source="Gvd8Ezxa3fLg7O33Pl0G-37" target="7Xwj2gsnW8v6YeENi7_U-10" edge="1"><mxGeometry width="50" height="50" relative="1" as="geometry"><mxPoint x="393.5" y="680" as="sourcePoint"/><mxPoint x="473.5" y="1050" as="targetPoint"/></mxGeometry></mxCell><mxCell id="7Xwj2gsnW8v6YeENi7_U-6" value="" style="shape=partialRectangle;whiteSpace=wrap;html=1;bottom=1;right=1;left=1;top=0;fillColor=none;routingCenterX=-0.5;rotation=90;" parent="1" vertex="1"><mxGeometry x="490" y="100" width="68" height="60" as="geometry"/></mxCell><mxCell id="7Xwj2gsnW8v6YeENi7_U-9" value="" style="endArrow=none;dashed=1;html=1;entryX=0.5;entryY=1;entryDx=0;entryDy=0;" parent="1" target="7Xwj2gsnW8v6YeENi7_U-6" edge="1"><mxGeometry width="50" height="50" relative="1" as="geometry"><mxPoint x="430" y="129.5" as="sourcePoint"/><mxPoint x="470" y="130" as="targetPoint"/></mxGeometry></mxCell><mxCell id="7Xwj2gsnW8v6YeENi7_U-10" value="" style="shape=partialRectangle;whiteSpace=wrap;html=1;bottom=1;right=1;left=1;top=0;fillColor=none;routingCenterX=-0.5;rotation=90;" parent="1" vertex="1"><mxGeometry x="490" y="570" width="68" height="60" as="geometry"/></mxCell><mxCell id="7Xwj2gsnW8v6YeENi7_U-19" value="" style="endArrow=none;html=1;entryX=0.5;entryY=1;entryDx=0;entryDy=0;exitX=0.5;exitY=0;exitDx=0;exitDy=0;" parent="1" target="Gvd8Ezxa3fLg7O33Pl0G-1" edge="1" source="21"><mxGeometry width="50" height="50" relative="1" as="geometry"><mxPoint x="360" y="190" as="sourcePoint"/><mxPoint x="260" y="180" as="targetPoint"/></mxGeometry></mxCell><mxCell id="7Xwj2gsnW8v6YeENi7_U-22" value="C := ClusterCore(P, G, CoreFlags, eps, MinPt,ThCnt)" style="shape=process;whiteSpace=wrap;html=1;backgroundOutline=1;" parent="1" vertex="1"><mxGeometry x="286" y="380" width="148" height="50" as="geometry"/></mxCell><mxCell id="bSRUe1ibWbnndraF5bIK-3" value="" style="endArrow=none;html=1;entryX=0.5;entryY=1;entryDx=0;entryDy=0;exitX=0.5;exitY=0;exitDx=0;exitDy=0;" parent="1" source="20" target="7Xwj2gsnW8v6YeENi7_U-22" edge="1"><mxGeometry width="50" height="50" relative="1" as="geometry"><mxPoint x="360" y="600" as="sourcePoint"/><mxPoint x="280" y="660" as="targetPoint"/></mxGeometry></mxCell><mxCell id="8" value="" style="edgeStyle=orthogonalEdgeStyle;rounded=0;orthogonalLoop=1;jettySize=auto;html=1;endArrow=none;endFill=0;exitX=0.5;exitY=1;exitDx=0;exitDy=0;" parent="1" source="22" target="7Xwj2gsnW8v6YeENi7_U-22" edge="1"><mxGeometry relative="1" as="geometry"><mxPoint x="361" y="490" as="sourcePoint"/></mxGeometry></mxCell><mxCell id="20" value="C := ClusterBorder(P, C, G, CoreFlags, eps, MinPt,ThCnt)" style="shape=process;whiteSpace=wrap;html=1;backgroundOutline=1;" vertex="1" parent="1"><mxGeometry x="286" y="470" width="148" height="50" as="geometry"/></mxCell><mxCell id="25" style="edgeStyle=orthogonalEdgeStyle;rounded=0;orthogonalLoop=1;jettySize=auto;html=1;endArrow=none;endFill=0;" edge="1" parent="1" source="21" target="22"><mxGeometry relative="1" as="geometry"/></mxCell><mxCell id="21" value="G := Make_cells(P, eps, MinPt,ThCnt)" style="shape=process;whiteSpace=wrap;html=1;backgroundOutline=1;" vertex="1" parent="1"><mxGeometry x="286" y="200" width="148" height="50" as="geometry"/></mxCell><mxCell id="22" value="CoreFlags := MarkCore(P, G, eps, MinPt,ThCnt)" style="shape=process;whiteSpace=wrap;html=1;backgroundOutline=1;" vertex="1" parent="1"><mxGeometry x="286" y="290" width="148" height="50" as="geometry"/></mxCell></root></mxGraphModel></diagram></mxfile>